<svg width="24" height="24" viewBox="0 0 24 24" fill="none" xmlns="http://www.w3.org/2000/svg">
<g clip-path="url(#clip0_1774_8953)">
<path d="M21.5531 3.99921C21.4622 3.98985 21.3706 3.98985 21.2798 3.99921H2.6131C2.49346 4.00105 2.37462 4.01899 2.25977 4.05254L11.8931 13.6459L21.5531 3.99921Z" fill="white"/>
<path d="M22.5385 4.92969L12.8318 14.5964C12.582 14.8447 12.2441 14.9841 11.8918 14.9841C11.5396 14.9841 11.2016 14.8447 10.9518 14.5964L1.33182 5.00302C1.30225 5.11171 1.28657 5.22372 1.28516 5.33635V18.6697C1.28516 19.0233 1.42563 19.3624 1.67568 19.6125C1.92573 19.8625 2.26487 20.003 2.61849 20.003H21.2852C21.6388 20.003 21.9779 19.8625 22.228 19.6125C22.478 19.3624 22.6185 19.0233 22.6185 18.6697V5.33635C22.6132 5.19746 22.5862 5.06024 22.5385 4.92969ZM3.53182 18.6697H2.60516V17.7164L7.45182 12.9097L8.39182 13.8497L3.53182 18.6697ZM21.2718 18.6697H20.3385L15.4785 13.8497L16.4185 12.9097L21.2652 17.7164L21.2718 18.6697Z" fill="white"/>
</g>
<defs>
<clipPath id="clip0_1774_8953">
<rect width="24" height="24" fill="white"/>
</clipPath>
</defs>
</svg>
