<svg width="32" height="32" viewBox="0 0 32 32" fill="none" xmlns="http://www.w3.org/2000/svg">
<path d="M30.0014 16.3075C30.0014 15.1564 29.9061 14.3164 29.6998 13.4453H16.2871V18.6408H24.1601C24.0014 19.932 23.1442 21.8764 21.2394 23.183L21.2127 23.3569L25.4536 26.5766L25.7474 26.6053C28.4458 24.1631 30.0014 20.5697 30.0014 16.3075Z" fill="#4285F4"/>
<path d="M16.2873 29.9968C20.1444 29.9968 23.3824 28.7523 25.7475 26.6057L21.2396 23.1834C20.0333 24.0078 18.4142 24.5834 16.2873 24.5834C12.5095 24.5834 9.30323 22.1412 8.16027 18.7656L7.99274 18.7796L3.58306 22.1241L3.52539 22.2812C5.87456 26.8545 10.7 29.9968 16.2873 29.9968Z" fill="#34A853"/>
<path d="M8.16061 18.7699C7.85903 17.8988 7.6845 16.9654 7.6845 16.001C7.6845 15.0365 7.85903 14.1032 8.14475 13.2321L8.13676 13.0466L3.67181 9.64844L3.52572 9.71653C2.55751 11.6143 2.00195 13.7455 2.00195 16.001C2.00195 18.2566 2.55751 20.3876 3.52572 22.2854L8.16061 18.7699Z" fill="#FBBC05"/>
<path d="M16.2874 7.4133C18.9699 7.4133 20.7793 8.54885 21.8111 9.4978L25.8429 5.64C23.3668 3.38445 20.1444 2 16.2874 2C10.7 2 5.87458 5.1422 3.52539 9.71549L8.14443 13.2311C9.30326 9.85555 12.5096 7.4133 16.2874 7.4133Z" fill="#EB4335"/>
</svg>
