<svg width="24" height="24" viewBox="0 0 24 24" fill="none" xmlns="http://www.w3.org/2000/svg">
<path d="M12.5 0.6875C16.0169 0.6875 18.875 3.51375 18.875 7.00937C18.875 11.7481 12.5 18.75 12.5 18.75C12.5 18.75 6.125 11.7481 6.125 7.00937C6.125 3.51375 8.98313 0.6875 12.5 0.6875ZM12.5 4.9375C11.9364 4.9375 11.3959 5.16138 10.9974 5.5599C10.5989 5.95841 10.375 6.49891 10.375 7.0625C10.375 7.62609 10.5989 8.16659 10.9974 8.5651C11.3959 8.96362 11.9364 9.1875 12.5 9.1875C13.0636 9.1875 13.6041 8.96362 14.0026 8.5651C14.4011 8.16659 14.625 7.62609 14.625 7.0625C14.625 6.49891 14.4011 5.95841 14.0026 5.5599C13.6041 5.16138 13.0636 4.9375 12.5 4.9375ZM21 18.75C21 21.0981 17.1962 23 12.5 23C7.80375 23 4 21.0981 4 18.75C4 17.3794 5.29625 16.1575 7.30438 15.3819L7.98438 16.3488C6.83687 16.8269 6.125 17.4856 6.125 18.2188C6.125 19.685 8.98313 20.875 12.5 20.875C16.0169 20.875 18.875 19.685 18.875 18.2188C18.875 17.4856 18.1631 16.8269 17.0156 16.3488L17.6956 15.3819C19.7037 16.1575 21 17.3794 21 18.75Z" fill="white"/>
</svg>
