<svg width="24" height="24" viewBox="0 0 24 24" fill="none" xmlns="http://www.w3.org/2000/svg">
<path d="M20.8333 22C18.5185 22 16.227 21.5 13.9589 20.5C11.6907 19.5 9.63037 18.0741 7.77778 16.2222C5.92519 14.3704 4.49926 12.3148 3.5 10.0556C2.50074 7.7963 2.00074 5.5 2 3.16667V2H8.55556L9.58333 7.58333L6.41667 10.7778C6.82407 11.5 7.27778 12.1852 7.77778 12.8333C8.27778 13.4815 8.81481 14.0833 9.38889 14.6389C9.92593 15.1759 10.5141 15.69 11.1533 16.1811C11.7926 16.6722 12.4822 17.1304 13.2222 17.5556L16.4444 14.3333L22 15.4722V22H20.8333Z" fill="white"/>
</svg>
